<?xml version="1.0" standalone="no"?>
<!DOCTYPE svg PUBLIC "-//W3C//DTD SVG 20010904//EN"
 "http://www.w3.org/TR/2001/REC-SVG-20010904/DTD/svg10.dtd">
<svg version="1.0" xmlns="http://www.w3.org/2000/svg"
 width="512.000000pt" height="512.000000pt" viewBox="0 0 512.000000 512.000000"
 preserveAspectRatio="xMidYMid meet">
<metadata>
Created by potrace 1.16, written by Peter Selinger 2001-2019
</metadata>
<g transform="translate(0.000000,512.000000) scale(0.100000,-0.100000)"
fill="#000000" stroke="none">
<path d="M2975 5092 c-148 -50 -264 -150 -330 -285 -85 -173 -84 -355 2 -527
172 -342 645 -417 919 -145 231 230 231 593 -1 821 -118 116 -237 164 -410
164 -83 0 -114 -5 -180 -28z"/>
<path d="M3004 3936 c-121 -24 -186 -66 -329 -210 -283 -285 -539 -629 -725
-974 -154 -285 -179 -384 -125 -487 l26 -48 -65 -116 c-36 -64 -96 -171 -133
-238 l-69 -122 -159 91 c-231 131 -257 142 -299 128 -18 -6 -40 -18 -48 -28
-33 -38 -750 -1318 -754 -1347 -9 -56 22 -86 185 -176 116 -65 150 -87 144
-99 -16 -34 -15 -148 2 -184 66 -139 263 -171 367 -60 59 63 75 170 39 251
l-19 41 150 264 c82 144 231 407 330 583 99 176 261 460 359 631 l179 310 54
23 c67 28 92 59 154 193 80 176 240 447 340 576 17 22 19 10 54 -396 39 -444
46 -483 102 -557 14 -18 26 -38 26 -44 0 -11 -392 -729 -655 -1201 -202 -362
-205 -369 -205 -458 0 -60 5 -84 27 -129 33 -66 103 -127 166 -144 60 -16 173
-7 223 19 87 44 102 70 496 827 271 520 381 724 389 725 6 0 136 -228 242
-425 102 -189 233 -457 367 -748 67 -147 135 -285 151 -306 17 -25 50 -50 90
-70 195 -97 419 34 419 246 0 75 -15 115 -138 383 -186 405 -429 876 -614
1190 -78 132 -80 135 -63 160 73 113 77 181 35 644 -17 192 -29 350 -28 352 2
2 35 -19 73 -45 198 -138 496 -239 762 -258 103 -7 155 10 211 71 77 83 79
209 5 295 -46 54 -77 69 -179 87 -266 47 -512 181 -847 466 -55 45 -138 116
-185 156 -171 144 -341 195 -528 158z m-2083 -3698 c10 -26 10 -35 -2 -57 -45
-79 -164 -26 -129 58 24 58 107 58 131 -1z"/>
</g>
</svg>
