<?xml version="1.0" standalone="no"?>
<!DOCTYPE svg PUBLIC "-//W3C//DTD SVG 20010904//EN"
 "http://www.w3.org/TR/2001/REC-SVG-20010904/DTD/svg10.dtd">
<svg version="1.0" xmlns="http://www.w3.org/2000/svg"
 width="512.000000pt" height="512.000000pt" viewBox="0 0 512.000000 512.000000"
 preserveAspectRatio="xMidYMid meet">
<metadata>
Created by potrace 1.16, written by Peter Selinger 2001-2019
</metadata>
<g transform="translate(0.000000,512.000000) scale(0.100000,-0.100000)"
fill="#000000" stroke="none">
<path d="M1215 4246 c-393 -77 -687 -366 -934 -921 -144 -322 -237 -687 -272
-1064 -15 -172 -6 -622 16 -781 22 -160 59 -303 97 -380 39 -77 126 -167 191
-198 99 -46 220 -55 314 -22 163 57 413 271 768 659 79 88 160 169 178 180 82
50 56 49 983 51 790 2 873 1 914 -14 76 -28 112 -59 248 -209 321 -354 580
-582 750 -659 38 -18 67 -22 152 -22 98 -1 109 1 173 31 224 107 311 365 324
964 6 292 -3 442 -42 676 -47 279 -126 544 -234 785 -198 441 -412 703 -686
838 -155 76 -238 95 -425 94 -136 0 -168 -3 -265 -28 -171 -44 -345 -120 -472
-208 -134 -91 -200 -108 -433 -108 -233 0 -299 17 -433 108 -129 88 -292 160
-457 203 -141 36 -342 47 -455 25z m2457 -596 c55 -28 84 -55 114 -106 109
-185 -34 -417 -248 -402 -75 5 -123 26 -173 76 -45 45 -62 76 -76 142 -26 122
53 259 176 305 55 20 152 13 207 -15z m-2181 -170 c30 -6 66 -15 82 -21 l27
-11 0 -174 0 -174 169 0 169 0 24 -47 c32 -66 32 -178 1 -245 l-22 -48 -175 0
-176 0 0 -174 0 -175 -57 -21 c-83 -31 -174 -30 -239 2 l-49 24 -3 172 -2 172
-168 2 -167 3 -20 40 c-26 54 -27 181 -2 248 l19 47 179 0 179 0 0 180 c0 99
3 180 8 180 4 1 30 7 57 15 61 17 97 18 166 5z m2871 -240 c167 -83 206 -299
77 -429 -80 -81 -206 -104 -304 -56 -27 13 -57 30 -65 37 -38 31 -74 93 -86
145 -51 220 178 404 378 303z m-697 -350 c93 -40 158 -140 157 -244 0 -138
-98 -250 -238 -272 -99 -15 -218 51 -268 150 -116 225 116 468 349 366z"/>
</g>
</svg>
