<?xml version="1.0" standalone="no"?>
<!DOCTYPE svg PUBLIC "-//W3C//DTD SVG 20010904//EN"
 "http://www.w3.org/TR/2001/REC-SVG-20010904/DTD/svg10.dtd">
<svg version="1.0" xmlns="http://www.w3.org/2000/svg"
 width="512.000000pt" height="512.000000pt" viewBox="0 0 512.000000 512.000000"
 preserveAspectRatio="xMidYMid meet">
<metadata>
Created by potrace 1.16, written by Peter Selinger 2001-2019
</metadata>
<g transform="translate(0.000000,512.000000) scale(0.100000,-0.100000)"
fill="#000000" stroke="none">
<path d="M2290 5093 c-509 -37 -916 -198 -1157 -457 -40 -43 -73 -82 -73 -86
0 -5 -35 -33 -78 -63 -235 -165 -432 -368 -597 -617 -183 -275 -291 -534 -361
-860 -24 -113 -26 -138 -21 -270 5 -117 11 -162 32 -230 22 -74 27 -114 35
-300 6 -118 15 -255 21 -305 23 -180 79 -364 164 -535 24 -49 38 -98 54 -200
39 -239 90 -411 146 -500 39 -62 105 -124 191 -180 42 -28 106 -78 143 -113
103 -97 321 -280 327 -274 3 3 -10 56 -30 118 -229 743 -320 1284 -333 1974
l-6 330 -109 -115 c-61 -63 -116 -127 -123 -141 -8 -14 -20 -59 -27 -99 -20
-106 -35 -111 -104 -35 -97 105 -102 126 -89 310 7 93 6 107 -23 206 -53 184
-52 293 3 484 74 254 217 521 406 760 79 101 271 298 369 380 l75 63 180 50
c523 147 809 219 970 243 104 16 448 17 550 1 278 -44 477 -107 705 -223 63
-32 144 -67 180 -78 86 -26 195 -45 222 -37 30 7 129 -68 277 -210 285 -273
487 -585 608 -939 l48 -140 0 -140 c0 -136 -1 -142 -35 -230 -37 -96 -38 -102
-28 -326 3 -84 2 -87 -33 -140 -20 -30 -39 -64 -43 -76 -7 -21 -8 -21 -39 -7
-28 14 -35 25 -55 97 -18 68 -28 88 -61 117 -43 39 -180 135 -185 129 -1 -2 1
-65 4 -139 7 -139 -2 -430 -19 -625 -29 -323 -109 -845 -187 -1212 -24 -116
-44 -218 -44 -227 0 -15 4 -14 38 3 75 38 238 144 317 206 240 187 340 391
361 735 6 93 12 125 34 175 43 95 96 241 126 350 28 100 28 100 29 420 l0 320
34 95 c31 85 35 109 39 222 3 94 0 146 -12 205 -80 371 -255 734 -502 1043
-96 119 -319 341 -444 440 -58 46 -117 98 -132 116 -37 43 -185 160 -278 219
-248 159 -596 272 -958 310 -122 13 -378 17 -502 8z"/>
<path d="M1030 2681 c-50 -15 -86 -40 -132 -89 l-46 -49 -7 -99 c-12 -156 1
-538 25 -734 27 -219 78 -526 131 -780 58 -280 152 -649 182 -713 48 -105 144
-168 233 -154 88 15 143 127 174 352 16 119 13 543 -5 745 -65 733 -199 1267
-364 1452 -66 74 -116 92 -191 69z"/>
<path d="M3945 2645 c-143 -72 -268 -436 -334 -970 -40 -324 -46 -426 -46
-800 0 -398 7 -492 52 -645 55 -193 133 -248 260 -185 60 30 114 102 138 182
69 231 184 900 231 1337 22 205 30 653 14 817 l-13 133 -46 49 c-78 85 -184
118 -256 82z"/>
</g>
</svg>
