<?xml version="1.0" standalone="no"?>
<!DOCTYPE svg PUBLIC "-//W3C//DTD SVG 20010904//EN"
 "http://www.w3.org/TR/2001/REC-SVG-20010904/DTD/svg10.dtd">
<svg version="1.0" xmlns="http://www.w3.org/2000/svg"
 width="512.000000pt" height="512.000000pt" viewBox="0 0 512.000000 512.000000"
 preserveAspectRatio="xMidYMid meet">
<metadata>
Created by potrace 1.16, written by Peter Selinger 2001-2019
</metadata>
<g transform="translate(0.000000,512.000000) scale(0.100000,-0.100000)"
fill="#000000" stroke="none">
<path d="M1207 4456 c-59 -16 -115 -60 -143 -112 -14 -25 -50 -176 -103 -434
-45 -217 -85 -405 -88 -417 l-5 -23 1692 0 1692 0 -5 23 c-3 12 -43 200 -88
417 -52 256 -89 409 -103 435 -28 53 -94 101 -156 114 -79 17 -2629 14 -2693
-3z"/>
<path d="M295 3915 c-5 -2 -22 -6 -37 -9 -65 -14 -128 -103 -128 -181 0 -64
31 -113 131 -212 l94 -93 55 15 c30 8 80 17 111 21 l55 6 23 116 22 115 -93
94 c-51 52 -104 100 -118 108 -26 13 -98 26 -115 20z"/>
<path d="M4695 3916 c-5 -3 -23 -7 -39 -11 -34 -7 -166 -130 -166 -154 0 -9
12 -78 27 -153 27 -137 28 -138 55 -138 15 0 50 -5 79 -11 l51 -11 90 88 c50
49 96 103 104 121 36 83 3 195 -69 238 -39 22 -110 39 -132 31z"/>
<path d="M523 3169 c-243 -41 -461 -249 -512 -487 -15 -70 -15 -534 0 -604 46
-215 221 -402 439 -470 l75 -23 2035 0 2035 0 75 23 c218 68 393 255 439 470
14 69 15 533 0 604 -15 74 -79 203 -131 264 -79 93 -185 164 -308 207 l-65 22
-2015 1 c-1108 1 -2038 -2 -2067 -7z m547 -381 c131 -31 256 -154 296 -289 72
-243 -91 -499 -343 -538 -226 -35 -447 128 -482 357 -21 131 20 252 118 355
109 114 251 154 411 115z m3200 0 c131 -31 256 -154 296 -289 72 -243 -91
-499 -343 -538 -226 -35 -447 128 -482 357 -21 131 20 252 118 355 109 114
251 154 411 115z m-988 -293 c82 -61 78 -179 -8 -236 -28 -18 -60 -19 -714
-19 -654 0 -686 1 -714 19 -43 29 -66 70 -66 121 0 59 32 106 90 132 8 4 323
6 700 5 668 -2 686 -2 712 -22z"/>
<path d="M130 1262 c0 -127 4 -194 15 -237 45 -169 170 -299 341 -352 51 -15
96 -18 314 -18 218 0 263 3 314 18 171 53 296 183 341 352 9 35 15 102 15 161
l0 102 -477 4 c-410 4 -488 7 -548 22 -91 22 -158 47 -245 91 l-70 35 0 -178z"/>
<path d="M4930 1409 c-76 -39 -172 -75 -255 -95 -60 -15 -139 -18 -547 -22
l-478 -4 0 -102 c0 -59 6 -126 15 -161 45 -169 170 -299 341 -352 51 -15 96
-18 314 -18 218 0 263 3 314 18 133 41 242 131 300 248 49 97 57 150 54 346
l-3 171 -55 -29z"/>
</g>
</svg>
