<?xml version="1.0" encoding="UTF-8"?><!DOCTYPE svg PUBLIC "-//W3C//DTD SVG 1.1//EN" "http://www.w3.org/Graphics/SVG/1.1/DTD/svg11.dtd"><svg xmlns="http://www.w3.org/2000/svg" xmlns:xlink="http://www.w3.org/1999/xlink" xmlns:cc="http://creativecommons.org/ns#" xmlns:dc="http://purl.org/dc/elements/1.1/" xmlns:inkscape="http://www.inkscape.org/namespaces/inkscape" xmlns:rdf="http://www.w3.org/1999/02/22-rdf-syntax-ns#" xmlns:sodipodi="http://sodipodi.sourceforge.net/DTD/sodipodi-0.dtd" xmlns:svg="http://www.w3.org/2000/svg"><symbol id="icon-auto" viewBox="0 0 512.000000 512.000000" preserveAspectRatio="xMidYMid meet">
<metadata>
Created by potrace 1.16, written by Peter Selinger 2001-2019
</metadata>
<g transform="translate(0.000000,512.000000) scale(0.100000,-0.100000)" stroke="none">
<path d="M1207 4456 c-59 -16 -115 -60 -143 -112 -14 -25 -50 -176 -103 -434
-45 -217 -85 -405 -88 -417 l-5 -23 1692 0 1692 0 -5 23 c-3 12 -43 200 -88
417 -52 256 -89 409 -103 435 -28 53 -94 101 -156 114 -79 17 -2629 14 -2693
-3z"/>
<path d="M295 3915 c-5 -2 -22 -6 -37 -9 -65 -14 -128 -103 -128 -181 0 -64
31 -113 131 -212 l94 -93 55 15 c30 8 80 17 111 21 l55 6 23 116 22 115 -93
94 c-51 52 -104 100 -118 108 -26 13 -98 26 -115 20z"/>
<path d="M4695 3916 c-5 -3 -23 -7 -39 -11 -34 -7 -166 -130 -166 -154 0 -9
12 -78 27 -153 27 -137 28 -138 55 -138 15 0 50 -5 79 -11 l51 -11 90 88 c50
49 96 103 104 121 36 83 3 195 -69 238 -39 22 -110 39 -132 31z"/>
<path d="M523 3169 c-243 -41 -461 -249 -512 -487 -15 -70 -15 -534 0 -604 46
-215 221 -402 439 -470 l75 -23 2035 0 2035 0 75 23 c218 68 393 255 439 470
14 69 15 533 0 604 -15 74 -79 203 -131 264 -79 93 -185 164 -308 207 l-65 22
-2015 1 c-1108 1 -2038 -2 -2067 -7z m547 -381 c131 -31 256 -154 296 -289 72
-243 -91 -499 -343 -538 -226 -35 -447 128 -482 357 -21 131 20 252 118 355
109 114 251 154 411 115z m3200 0 c131 -31 256 -154 296 -289 72 -243 -91
-499 -343 -538 -226 -35 -447 128 -482 357 -21 131 20 252 118 355 109 114
251 154 411 115z m-988 -293 c82 -61 78 -179 -8 -236 -28 -18 -60 -19 -714
-19 -654 0 -686 1 -714 19 -43 29 -66 70 -66 121 0 59 32 106 90 132 8 4 323
6 700 5 668 -2 686 -2 712 -22z"/>
<path d="M130 1262 c0 -127 4 -194 15 -237 45 -169 170 -299 341 -352 51 -15
96 -18 314 -18 218 0 263 3 314 18 171 53 296 183 341 352 9 35 15 102 15 161
l0 102 -477 4 c-410 4 -488 7 -548 22 -91 22 -158 47 -245 91 l-70 35 0 -178z"/>
<path d="M4930 1409 c-76 -39 -172 -75 -255 -95 -60 -15 -139 -18 -547 -22
l-478 -4 0 -102 c0 -59 6 -126 15 -161 45 -169 170 -299 341 -352 51 -15 96
-18 314 -18 218 0 263 3 314 18 133 41 242 131 300 248 49 97 57 150 54 346
l-3 171 -55 -29z"/>
</g>
</symbol><symbol id="icon-email" viewBox="0 0 32 32.000001"><g id="layer1" transform="translate(0,-1020.3621)"><g id="g7827"><path d="m 5.5,1027.3621 c -0.831,0 -1.5,0.669 -1.5,1.5 l 0,14 c 0,0.831 0.669,1.5 1.5,1.5 l 1.5,0 0,-13.5 8.5,7 8.50195,-7 0,13.5 1.49805,0 c 0.831,0 1.5,-0.669 1.5,-1.5 l 0,-14 c 0,-0.831 -0.669,-1.5 -1.5,-1.5 l -1.49805,0 -8.50195,7 -8.5,-7 -1.5,0 z" id="path5220" style="opacity:1;fill:#dd5044;fill-opacity:1;stroke:none;stroke-width:1;stroke-linecap:round;stroke-linejoin:round;stroke-miterlimit:4.0999999;stroke-dasharray:none"/></g></g></symbol><symbol id="icon-facebook" viewBox="0 0 291.319 291.319">
<g>
	<path style="fill:#3B5998;" d="M145.659,0c80.45,0,145.66,65.219,145.66,145.66c0,80.45-65.21,145.659-145.66,145.659
		S0,226.109,0,145.66C0,65.219,65.21,0,145.659,0z"/>
	<path style="fill:#FFFFFF;" d="M163.394,100.277h18.772v-27.73h-22.067v0.1c-26.738,0.947-32.218,15.977-32.701,31.763h-0.055
		v13.847h-18.207v27.156h18.207v72.793h27.439v-72.793h22.477l4.342-27.156h-26.81v-8.366
		C154.791,104.556,158.341,100.277,163.394,100.277z"/>
</g>
<g>
</g>
<g>
</g>
<g>
</g>
<g>
</g>
<g>
</g>
<g>
</g>
<g>
</g>
<g>
</g>
<g>
</g>
<g>
</g>
<g>
</g>
<g>
</g>
<g>
</g>
<g>
</g>
<g>
</g>
</symbol><symbol id="icon-game" viewBox="0 0 512.000000 512.000000" preserveAspectRatio="xMidYMid meet">
<metadata>
Created by potrace 1.16, written by Peter Selinger 2001-2019
</metadata>
<g transform="translate(0.000000,512.000000) scale(0.100000,-0.100000)" stroke="none">
<path d="M1215 4246 c-393 -77 -687 -366 -934 -921 -144 -322 -237 -687 -272
-1064 -15 -172 -6 -622 16 -781 22 -160 59 -303 97 -380 39 -77 126 -167 191
-198 99 -46 220 -55 314 -22 163 57 413 271 768 659 79 88 160 169 178 180 82
50 56 49 983 51 790 2 873 1 914 -14 76 -28 112 -59 248 -209 321 -354 580
-582 750 -659 38 -18 67 -22 152 -22 98 -1 109 1 173 31 224 107 311 365 324
964 6 292 -3 442 -42 676 -47 279 -126 544 -234 785 -198 441 -412 703 -686
838 -155 76 -238 95 -425 94 -136 0 -168 -3 -265 -28 -171 -44 -345 -120 -472
-208 -134 -91 -200 -108 -433 -108 -233 0 -299 17 -433 108 -129 88 -292 160
-457 203 -141 36 -342 47 -455 25z m2457 -596 c55 -28 84 -55 114 -106 109
-185 -34 -417 -248 -402 -75 5 -123 26 -173 76 -45 45 -62 76 -76 142 -26 122
53 259 176 305 55 20 152 13 207 -15z m-2181 -170 c30 -6 66 -15 82 -21 l27
-11 0 -174 0 -174 169 0 169 0 24 -47 c32 -66 32 -178 1 -245 l-22 -48 -175 0
-176 0 0 -174 0 -175 -57 -21 c-83 -31 -174 -30 -239 2 l-49 24 -3 172 -2 172
-168 2 -167 3 -20 40 c-26 54 -27 181 -2 248 l19 47 179 0 179 0 0 180 c0 99
3 180 8 180 4 1 30 7 57 15 61 17 97 18 166 5z m2871 -240 c167 -83 206 -299
77 -429 -80 -81 -206 -104 -304 -56 -27 13 -57 30 -65 37 -38 31 -74 93 -86
145 -51 220 178 404 378 303z m-697 -350 c93 -40 158 -140 157 -244 0 -138
-98 -250 -238 -272 -99 -15 -218 51 -268 150 -116 225 116 468 349 366z"/>
</g>
</symbol><symbol id="icon-github" viewBox="0 0 72 72"><g fill="none" fill-rule="evenodd"><path d="M8,72 L64,72 C68.418278,72 72,68.418278 72,64 L72,8 C72,3.581722 68.418278,-8.11624501e-16 64,0 L8,0 C3.581722,8.11624501e-16 -5.41083001e-16,3.581722 0,8 L0,64 C5.41083001e-16,68.418278 3.581722,72 8,72 Z" fill="#3E75C3"/><path d="M35.9985,12 C22.746,12 12,22.7870921 12,36.096644 C12,46.7406712 18.876,55.7718301 28.4145,58.9584121 C29.6145,59.1797862 30.0525,58.4358488 30.0525,57.7973276 C30.0525,57.2250681 30.0315,55.7100863 30.0195,53.6996482 C23.343,55.1558981 21.9345,50.4693938 21.9345,50.4693938 C20.844,47.6864054 19.2705,46.9454799 19.2705,46.9454799 C17.091,45.4500754 19.4355,45.4801943 19.4355,45.4801943 C21.843,45.6503662 23.1105,47.9634994 23.1105,47.9634994 C25.2525,51.6455377 28.728,50.5823398 30.096,49.9649018 C30.3135,48.4077535 30.9345,47.3460615 31.62,46.7436831 C26.2905,46.1352808 20.688,44.0691228 20.688,34.8361671 C20.688,32.2052792 21.6225,30.0547881 23.1585,28.3696344 C22.911,27.7597262 22.0875,25.3110578 23.3925,21.9934585 C23.3925,21.9934585 25.4085,21.3459017 29.9925,24.4632101 C31.908,23.9285993 33.96,23.6620468 36.0015,23.6515052 C38.04,23.6620468 40.0935,23.9285993 42.0105,24.4632101 C46.5915,21.3459017 48.603,21.9934585 48.603,21.9934585 C49.9125,25.3110578 49.089,27.7597262 48.8415,28.3696344 C50.3805,30.0547881 51.309,32.2052792 51.309,34.8361671 C51.309,44.0917119 45.6975,46.1292571 40.3515,46.7256117 C41.2125,47.4695491 41.9805,48.9393525 41.9805,51.1877301 C41.9805,54.4089489 41.9505,57.0067059 41.9505,57.7973276 C41.9505,58.4418726 42.3825,59.1918338 43.6005,58.9554002 C53.13,55.7627944 60,46.7376593 60,36.096644 C60,22.7870921 49.254,12 35.9985,12" fill="#FFF"/></g></symbol><symbol id="icon-instagram" viewBox="0 0 291.319 291.319">
<g>
	<path style="fill:#3F729B;" d="M145.659,0c80.44,0,145.66,65.219,145.66,145.66S226.1,291.319,145.66,291.319S0,226.1,0,145.66
		S65.21,0,145.659,0z"/>
	<path style="fill:#FFFFFF;" d="M195.93,63.708H95.38c-17.47,0-31.672,14.211-31.672,31.672v100.56
		c0,17.47,14.211,31.672,31.672,31.672h100.56c17.47,0,31.672-14.211,31.672-31.672V95.38
		C227.611,77.919,213.4,63.708,195.93,63.708z M205.908,82.034l3.587-0.009v27.202l-27.402,0.091l-0.091-27.202
		C182.002,82.116,205.908,82.034,205.908,82.034z M145.66,118.239c22.732,0,27.42,21.339,27.42,27.429
		c0,15.103-12.308,27.411-27.42,27.411c-15.121,0-27.42-12.308-27.42-27.411C118.23,139.578,122.928,118.239,145.66,118.239z
		 M209.65,193.955c0,8.658-7.037,15.704-15.713,15.704H97.073c-8.667,0-15.713-7.037-15.713-15.704v-66.539h22.759
		c-2.112,5.198-3.305,12.299-3.305,18.253c0,24.708,20.101,44.818,44.818,44.818s44.808-20.11,44.808-44.818
		c0-5.954-1.193-13.055-3.296-18.253h22.486v66.539L209.65,193.955z"/>
</g>
<g>
</g>
<g>
</g>
<g>
</g>
<g>
</g>
<g>
</g>
<g>
</g>
<g>
</g>
<g>
</g>
<g>
</g>
<g>
</g>
<g>
</g>
<g>
</g>
<g>
</g>
<g>
</g>
<g>
</g>
</symbol><symbol id="icon-linkedin" viewBox="0 0 72 72"><g fill="none" fill-rule="evenodd"><path d="M8,72 L64,72 C68.418278,72 72,68.418278 72,64 L72,8 C72,3.581722 68.418278,-8.11624501e-16 64,0 L8,0 C3.581722,8.11624501e-16 -5.41083001e-16,3.581722 0,8 L0,64 C5.41083001e-16,68.418278 3.581722,72 8,72 Z" fill="#007EBB"/><path d="M62,62 L51.315625,62 L51.315625,43.8021149 C51.315625,38.8127542 49.4197917,36.0245323 45.4707031,36.0245323 C41.1746094,36.0245323 38.9300781,38.9261103 38.9300781,43.8021149 L38.9300781,62 L28.6333333,62 L28.6333333,27.3333333 L38.9300781,27.3333333 L38.9300781,32.0029283 C38.9300781,32.0029283 42.0260417,26.2742151 49.3825521,26.2742151 C56.7356771,26.2742151 62,30.7644705 62,40.051212 L62,62 Z M16.349349,22.7940133 C12.8420573,22.7940133 10,19.9296567 10,16.3970067 C10,12.8643566 12.8420573,10 16.349349,10 C19.8566406,10 22.6970052,12.8643566 22.6970052,16.3970067 C22.6970052,19.9296567 19.8566406,22.7940133 16.349349,22.7940133 Z M11.0325521,62 L21.769401,62 L21.769401,27.3333333 L11.0325521,27.3333333 L11.0325521,62 Z" fill="#FFF"/></g></symbol><symbol id="icon-movie" viewBox="0 0 512 512">
<g>
	<path d="M480,0H32C14.313,0,0,14.328,0,32v448c0,17.688,14.313,32,32,32h448c17.688,0,32-14.312,32-32V32
		C512,14.328,497.688,0,480,0z M432,448H160v16c0,8.844-7.156,16-16,16s-16-7.156-16-16v-16H80c-8.844,0-16-7.156-16-16
		s7.156-16,16-16h48v-16c0-8.844,7.156-16,16-16s16,7.156,16,16v16h272c8.844,0,16,7.156,16,16S440.844,448,432,448z M480,352H32V32
		h448V352z M356.219,176.125c15.281,8.734,15.281,23.016,0,31.75l-168.438,96.25C172.5,312.844,160,305.594,160,288V96
		c0-17.594,12.5-24.859,27.781-16.125L356.219,176.125z"/>
</g>
<g>
</g>
<g>
</g>
<g>
</g>
<g>
</g>
<g>
</g>
<g>
</g>
<g>
</g>
<g>
</g>
<g>
</g>
<g>
</g>
<g>
</g>
<g>
</g>
<g>
</g>
<g>
</g>
<g>
</g>
</symbol><symbol id="icon-music" viewBox="0 0 512.000000 512.000000" preserveAspectRatio="xMidYMid meet">
<metadata>
Created by potrace 1.16, written by Peter Selinger 2001-2019
</metadata>
<g transform="translate(0.000000,512.000000) scale(0.100000,-0.100000)" stroke="none">
<path d="M2290 5093 c-509 -37 -916 -198 -1157 -457 -40 -43 -73 -82 -73 -86
0 -5 -35 -33 -78 -63 -235 -165 -432 -368 -597 -617 -183 -275 -291 -534 -361
-860 -24 -113 -26 -138 -21 -270 5 -117 11 -162 32 -230 22 -74 27 -114 35
-300 6 -118 15 -255 21 -305 23 -180 79 -364 164 -535 24 -49 38 -98 54 -200
39 -239 90 -411 146 -500 39 -62 105 -124 191 -180 42 -28 106 -78 143 -113
103 -97 321 -280 327 -274 3 3 -10 56 -30 118 -229 743 -320 1284 -333 1974
l-6 330 -109 -115 c-61 -63 -116 -127 -123 -141 -8 -14 -20 -59 -27 -99 -20
-106 -35 -111 -104 -35 -97 105 -102 126 -89 310 7 93 6 107 -23 206 -53 184
-52 293 3 484 74 254 217 521 406 760 79 101 271 298 369 380 l75 63 180 50
c523 147 809 219 970 243 104 16 448 17 550 1 278 -44 477 -107 705 -223 63
-32 144 -67 180 -78 86 -26 195 -45 222 -37 30 7 129 -68 277 -210 285 -273
487 -585 608 -939 l48 -140 0 -140 c0 -136 -1 -142 -35 -230 -37 -96 -38 -102
-28 -326 3 -84 2 -87 -33 -140 -20 -30 -39 -64 -43 -76 -7 -21 -8 -21 -39 -7
-28 14 -35 25 -55 97 -18 68 -28 88 -61 117 -43 39 -180 135 -185 129 -1 -2 1
-65 4 -139 7 -139 -2 -430 -19 -625 -29 -323 -109 -845 -187 -1212 -24 -116
-44 -218 -44 -227 0 -15 4 -14 38 3 75 38 238 144 317 206 240 187 340 391
361 735 6 93 12 125 34 175 43 95 96 241 126 350 28 100 28 100 29 420 l0 320
34 95 c31 85 35 109 39 222 3 94 0 146 -12 205 -80 371 -255 734 -502 1043
-96 119 -319 341 -444 440 -58 46 -117 98 -132 116 -37 43 -185 160 -278 219
-248 159 -596 272 -958 310 -122 13 -378 17 -502 8z"/>
<path d="M1030 2681 c-50 -15 -86 -40 -132 -89 l-46 -49 -7 -99 c-12 -156 1
-538 25 -734 27 -219 78 -526 131 -780 58 -280 152 -649 182 -713 48 -105 144
-168 233 -154 88 15 143 127 174 352 16 119 13 543 -5 745 -65 733 -199 1267
-364 1452 -66 74 -116 92 -191 69z"/>
<path d="M3945 2645 c-143 -72 -268 -436 -334 -970 -40 -324 -46 -426 -46
-800 0 -398 7 -492 52 -645 55 -193 133 -248 260 -185 60 30 114 102 138 182
69 231 184 900 231 1337 22 205 30 653 14 817 l-13 133 -46 49 c-78 85 -184
118 -256 82z"/>
</g>
</symbol><symbol id="icon-phone" viewBox="0 0 30 30"><path d="M28.7,10.2c-2.5-3-7.6-4.8-13.7-4.8c0,0,0,0,0,0h0c0,0,0,0,0,0c-6,0-11.2,1.8-13.7,4.8c-1,1.2-1.4,2.6-1.1,4  c0.2,1.2,1,2.3,2,2.8c0.6,0.3,1.3,0.4,1.9,0.4c0.3,0,0.7,0,1-0.1c-0.2,0.6-0.3,1.2-0.4,1.9c-0.2,1.8,0.1,3.1,1,4.1  c1,1.2,2.6,1.3,3.2,1.3c0.2,0,0.3,0,0.3,0h11.7c1.3,0,2.5-0.5,3.2-1.4c1-1.2,1.2-2.9,1.1-4c-0.1-0.6-0.2-1.3-0.4-1.9  c0.3,0.1,0.7,0.1,1.1,0.1c0.6,0,1.3-0.1,1.9-0.4c1-0.5,1.8-1.6,2-2.8C30,12.8,29.7,11.3,28.7,10.2z M23,22.2  c-0.5,0.6-1.2,0.9-2.1,0.9l-11.8,0c-0.1,0-1.5,0.1-2.3-0.8c-0.5-0.6-0.7-1.6-0.6-2.9c0.5-4,3.2-6.4,3.7-6.8c1.4-1.1,3.3-1.8,5.2-1.8  c1.9,0,3.6,0.6,4.9,1.8c1.9,1.6,3.3,4.3,3.7,6.8C23.8,20.2,23.7,21.4,23,22.2z M28.3,13.9c-0.2,0.8-0.6,1.5-1.3,1.8  c-1.1,0.6-2.6,0.1-3-0.1c-0.7-1.6-1.8-3-3.1-4.1c-1.6-1.4-3.7-2.1-5.9-2.1c-2.2,0-4.4,0.8-6.1,2.1c-0.4,0.3-2.1,1.8-3.2,4.2  c-0.5,0.2-1.8,0.6-2.8,0c-0.6-0.3-1.1-1-1.3-1.8c-0.2-0.9,0.1-1.9,0.8-2.7C4.7,8.5,9.4,6.9,15,6.9c5.6,0,10.3,1.6,12.5,4.3  C28.2,12,28.5,12.9,28.3,13.9z M15,12.4c-2.2,0-4.1,1.6-4.1,3.5s1.8,3.5,4.1,3.5c2.2,0,4.1-1.6,4.1-3.5S17.2,12.4,15,12.4z M15,17.9  c-1.4,0-2.6-0.9-2.6-2s1.1-2,2.6-2c1.4,0,2.6,0.9,2.6,2S16.4,17.9,15,17.9z" fill="#262324"/></symbol><symbol id="icon-play" viewBox="0 0 47.902 47.902">
<g>
	<g>
		<path d="M2.116,28.979c0,5.356,0,10.714,0,16.072c0,1.792,0.645,2.569,1.567,2.773c1.078,0.239,2.195-0.148,2.464-0.203
			c0.182-0.036,0.348-0.104,0.445-0.203c0.035-0.034,0.07-0.069,0.104-0.104c0.059-0.059,0.54-0.296,1.058-0.566
			c0.332-0.173,0.646-0.349,0.927-0.512c11.556-6.699,23.112-13.398,34.667-20.097c3.553-2.059,3.035-4.261-0.332-6.091
			c-5.896-3.206-11.795-6.411-17.691-9.616C19.192,7.1,13.061,3.768,6.929,0.435C6.918,0.429,6.904,0.426,6.89,0.423
			C6.867,0.419,6.835,0.407,6.821,0.397c-0.008-0.005-0.016-0.01-0.027-0.015C6.778,0.377,6.765,0.373,6.751,0.369
			C6.729,0.363,6.7,0.348,6.691,0.337C6.685,0.331,6.678,0.324,6.672,0.318C6.609,0.25,6.52,0.211,6.415,0.191
			c-0.158-0.029-1.211-0.382-2.265-0.05C1.988,0.823,2.117,4.309,2.117,6.872C2.116,14.242,2.116,21.611,2.116,28.979z
			 M31.754,31.81c-2.344,1.357-4.684,2.715-7.026,4.073c-2.042,1.184-4.084,2.367-6.126,3.552c-0.956,0.554-1.076,0.392-0.27-0.363
			c1.302-1.218,2.594-2.427,3.859-3.614c0.807-0.756,1.631-1.475,2.447-2.22c0.845-0.772,2.087-1.915,3.611-3.32
			c0.811-0.749,1.352-1.479,1.209-1.633s-0.908,0.339-1.713,1.096c-0.795,0.748-1.715,1.61-2.74,2.57
			c-3.552,3.503-0.587,0.411-8.022,7.828c-0.782,0.78-2.191,1.864-3.147,2.417c-1.038,0.602-2.077,1.204-3.116,1.806
			c-0.955,0.555-1.099,0.368-0.32-0.416c5.538-5.577,11.077-11.154,16.615-16.731c0.779-0.784,2.023-0.769,2.781,0.037
			c0.771,0.819,1.543,1.64,2.314,2.46C32.869,30.155,32.711,31.256,31.754,31.81z M36.598,17.932
			c0.156,0.085,0.312,0.17,0.469,0.255c2.438,1.324,10.461,4.479,5.016,7.636c-1.881,1.089-3.76,2.179-5.639,3.269
			c-0.955,0.554-2.006,0.71-2.346,0.351c-0.338-0.36-0.154-1.116,0.41-1.688c0.564-0.571,0.932-1.133,0.816-1.253
			c-0.111-0.12-0.658,0.249-1.223,0.825c-0.561,0.576-1.412,0.622-1.9,0.104c-0.486-0.52-0.26-1.579,0.514-2.369
			c1.311-1.337,2.607-2.664,3.871-3.949c0.773-0.788,1.141-1.569,0.818-1.744c-0.322-0.175-1.215,0.319-1.992,1.104
			c-1.223,1.231-2.422,2.439-3.602,3.627c-0.777,0.784-1.572,1.248-1.771,1.034c-0.201-0.214,0.266-1.023,1.043-1.809
			c1.223-1.236,2.348-2.375,3.346-3.386c0.777-0.786,1.379-1.439,1.344-1.458c-0.033-0.018-0.691,0.602-1.471,1.386
			c-1.107,1.116-2.217,2.231-3.324,3.347c-0.777,0.784-1.445,1.379-1.492,1.33c-0.047-0.049,0.547-0.725,1.326-1.508
			c1.303-1.312,2.605-2.626,3.91-3.938C35.5,18.312,36.34,17.791,36.598,17.932z M11.033,4.039
			c7.458,4.051,14.914,8.104,22.371,12.157c0.971,0.527,1.125,1.59,0.348,2.375c-0.539,0.543-1.078,1.085-1.615,1.627
			c-0.779,0.784-1.582,1.235-1.797,1.008c-0.213-0.227-0.848,0.05-1.414,0.62c-0.566,0.57-1.496,0.535-2.074-0.079
			c-0.578-0.613-0.59-1.577-0.027-2.151c0.562-0.575,0.963-1.101,0.893-1.176c-0.07-0.075-0.609,0.303-1.203,0.843
			c-0.596,0.541-1.449,0.585-1.907,0.098c-0.458-0.487-0.356-1.329,0.228-1.881c0.583-0.552,1.031-1.026,1.001-1.057
			c-0.029-0.031-0.518,0.398-1.093,0.96c-0.575,0.562-1.442,0.592-1.938,0.066c-0.494-0.525-0.418-1.394,0.171-1.94
			c0.59-0.547,0.87-1.2,0.626-1.458c-0.244-0.259-0.919-0.026-1.508,0.521c-0.589,0.547-1.277,0.766-1.538,0.489
			c-0.261-0.276,0.004-0.945,0.591-1.494c0.587-0.549,0.989-1.074,0.896-1.171c-0.093-0.098-0.629,0.282-1.198,0.85
			c-0.57,0.567-1.409,0.625-1.877,0.129c-0.467-0.496-0.391-1.366,0.17-1.943c0.562-0.577,0.904-1.162,0.767-1.308
			c-0.138-0.146-0.693,0.161-1.24,0.684c-0.311,0.299-0.642,0.614-0.989,0.947c-0.02,0.021-0.04,0.04-0.061,0.06
			c-0.032,0.033-0.488-0.396-1.018-0.958c-0.53-0.562-0.622-1.351-0.206-1.761c0.415-0.41,0.491-0.884,0.171-1.059
			c-0.321-0.174-0.848-0.042-1.175,0.295c-0.327,0.338-0.749,0.445-0.942,0.239c-0.193-0.206-0.135-0.591,0.131-0.861
			c0.266-0.27,0.249-0.288-0.021-0.022s-0.507,0.461-0.538,0.428c-0.032-0.034,0.148-0.271,0.399-0.528
			c0.253-0.258,0.177-0.621-0.171-0.81c-0.348-0.189-0.766-0.207-0.936-0.041c-0.169,0.167-0.642-0.053-1.055-0.492
			s-0.725-0.818-0.696-0.847c0.028-0.029-0.041-0.103-0.155-0.165c-0.114-0.062-0.636-0.568-1.166-1.131
			C9.707,3.541,10.062,3.512,11.033,4.039z M3.684,4.301C3.804,3.568,3.965,2.92,4.175,2.406c0.419-1.021,1.713-0.9,2.108-0.479
			c0.396,0.42,0.086,1.396-0.689,2.183c-0.244,0.248-0.49,0.498-0.738,0.75C4.083,5.646,3.503,5.39,3.684,4.301z M4.887,5.047
			c0.278-0.268,0.557-0.534,0.835-0.8C6.52,3.483,7.405,3.116,7.699,3.428c0.293,0.311-0.116,1.183-0.914,1.947
			c-0.648,0.622-1.312,1.258-1.99,1.908C3.999,8.048,3.358,8.167,3.383,7.549C3.407,6.932,4.089,5.811,4.887,5.047z M4.793,7.379
			c0.688-0.66,1.368-1.312,2.04-1.955c0.798-0.764,2.059-0.73,2.815,0.074c5.56,5.904,11.12,11.808,16.682,17.712
			c0.756,0.804,0.738,2.091-0.039,2.874c-5.209,5.245-10.418,10.49-15.626,15.735c-0.778,0.784-1.41,1.381-1.41,1.332
			c0-0.048-0.657,0.521-1.469,1.271c-0.229,0.213-0.459,0.424-0.689,0.635c-0.812,0.748-1.928,1.366-2.352,1.068
			c-0.424-0.297,0.064-1.308,0.884-2.048c0.716-0.646,1.432-1.294,2.146-1.942c0.817-0.742,1.479-1.79,1.479-2.339
			c0-0.548-0.655-0.381-1.463,0.372c-0.88,0.82-1.76,1.642-2.639,2.462c-0.808,0.755-1.608,0.479-1.634-0.626
			c-0.012-0.513-0.006-1.029,0.005-1.526c0.025-1.104,0.438-2.367,0.922-2.821c0.29-0.271,0.581-0.546,0.876-0.822
			c0.848-0.877,1.692-1.747,2.538-2.615c0.769-0.792,1.394-1.818,1.394-2.291c0-0.474-0.635-0.226-1.418,0.554
			c-1.107,1.1-2.194,2.182-3.254,3.236c-0.168,0.181-0.336,0.359-0.504,0.54c-0.279,0.297-0.507-0.155-0.507-1.011
			c0-0.854,0.635-2.18,1.417-2.96c0.617-0.615,1.235-1.229,1.857-1.844c0.141-0.154,0.281-0.308,0.421-0.461
			c0.232-0.254-0.224,0.162-1.018,0.929c-0.373,0.36-0.728,0.703-1.046,1.009c-0.796,0.768-1.491,1.419-1.54,1.47
			c-0.051,0.05-0.091-0.263-0.091-0.698s0.637-1.417,1.423-2.193c0.945-0.933,1.892-1.864,2.836-2.797
			c0.787-0.774,1.424-1.815,1.424-2.324c0-0.507-0.623-0.276-1.392,0.517c-0.967,0.997-1.933,1.994-2.899,2.991
			c-0.768,0.794-1.392,0.957-1.392,0.363c0-0.593,0.623-1.716,1.393-2.508c0.987-1.017,1.954-2.011,2.894-2.977
			c0.771-0.792,1.396-1.994,1.396-2.686c0-0.691-0.638-0.622-1.425,0.153c-0.94,0.926-1.886,1.858-2.834,2.794
			c-0.787,0.774-1.424,0.56-1.424-0.481c0-1.041,0.648-2.502,1.446-3.266c1.366-1.307,2.732-2.62,4.097-3.952
			c0.023-0.023,0.047-0.047,0.07-0.07c0.038-0.039,0.069-0.301,0.069-0.585c0-0.284-0.631,0.122-1.408,0.907
			c-0.956,0.966-1.912,1.932-2.868,2.899c-0.776,0.786-1.406,0.673-1.406-0.251c0-0.925,0.626-2.313,1.4-3.101
			c0.962-0.98,1.922-1.957,2.878-2.929c0.775-0.787,1.404-1.768,1.404-2.193c0-0.425-0.644-0.146-1.438,0.622
			c-0.763,0.737-1.718,1.661-2.824,2.732c-0.794,0.769-1.439,1.38-1.439,1.366C3.549,15.707,4.189,15.07,4.981,14.3
			c1.021-0.995,2.005-1.953,2.832-2.754c0.793-0.769,1.438-1.406,1.438-1.428c0-0.021-0.64,0.587-1.43,1.36
			c-0.928,0.908-1.876,1.833-2.844,2.777c-0.79,0.771-1.461,0.897-1.493,0.279C3.451,13.916,4.07,12.79,4.862,12.02
			c0.974-0.948,1.957-1.907,2.956-2.879C8.61,8.37,9.251,7.303,9.251,6.756c0-0.547-0.636-0.359-1.419,0.419
			C6.815,8.185,5.8,9.193,4.784,10.201c-0.783,0.778-1.437,0.772-1.442-0.014C3.339,9.401,3.997,8.143,4.793,7.379z"/>
		<path d="M23.067,31.746c-0.773,0.788-0.74,0.824,0.074,0.078c1.146-1.05,2.292-2.099,3.438-3.145
			c0.277-0.279,0.559-0.559,0.838-0.836c0.463-0.461,0.779-0.897,0.711-0.973c-0.072-0.075-0.756,0.504-1.531,1.291
			C25.422,29.357,24.243,30.551,23.067,31.746z"/>
	</g>
</g>
<g>
</g>
<g>
</g>
<g>
</g>
<g>
</g>
<g>
</g>
<g>
</g>
<g>
</g>
<g>
</g>
<g>
</g>
<g>
</g>
<g>
</g>
<g>
</g>
<g>
</g>
<g>
</g>
<g>
</g>
</symbol><symbol id="icon-run" viewBox="0 0 512.000000 512.000000" preserveAspectRatio="xMidYMid meet">
<metadata>
Created by potrace 1.16, written by Peter Selinger 2001-2019
</metadata>
<g transform="translate(0.000000,512.000000) scale(0.100000,-0.100000)" stroke="none">
<path d="M2876 5105 c-185 -51 -339 -200 -397 -385 -24 -78 -29 -218 -10 -300
61 -260 291 -440 561 -440 159 0 286 53 400 169 87 88 123 148 150 257 79 308
-101 620 -406 699 -71 18 -230 18 -298 0z"/>
<path d="M2830 3833 c-85 -16 -404 -101 -504 -135 -360 -119 -690 -324 -972
-603 -217 -215 -260 -303 -218 -444 29 -99 140 -181 244 -181 20 0 61 7 91 16
49 15 66 29 194 161 216 224 361 332 609 454 77 38 141 67 142 66 2 -1 -46
-198 -107 -437 -125 -498 -133 -554 -99 -659 l22 -70 -85 -104 c-313 -380
-763 -605 -1247 -624 -162 -6 -214 -20 -270 -75 -138 -133 -97 -368 79 -446
28 -13 65 -16 166 -15 232 3 423 36 658 114 421 140 779 391 1054 738 l19 23
65 -52 c215 -176 417 -416 551 -655 108 -192 174 -361 234 -599 19 -76 43
-155 54 -175 42 -83 127 -131 230 -131 136 0 234 82 259 216 11 58 -8 166 -59
347 -149 520 -462 1013 -857 1349 -47 40 -97 82 -110 93 l-23 20 116 460 c64
253 117 461 118 462 1 1 64 -29 139 -67 293 -148 626 -216 937 -191 133 11
170 23 228 76 60 53 85 113 84 194 -2 112 -53 194 -147 237 -47 22 -62 24
-231 23 -100 0 -210 5 -245 11 -212 36 -393 111 -554 230 -53 39 -276 242
-325 295 -51 56 -165 93 -240 78z"/>
</g>
</symbol><symbol id="icon-skype" viewBox="0 0 128 128"><g id="_x31__stroke"><g id="Skype_1_"><rect fill="none" height="128" width="128"/><path clip-rule="evenodd" d="M95.992,93.435c-2.822,3.947-6.992,7.063-12.41,9.274    c-5.351,2.196-11.763,3.316-19.071,3.316c-8.768,0-16.12-1.521-21.863-4.526c-4.102-2.181-7.481-5.134-10.047-8.799    c-2.596-3.68-3.906-7.337-3.906-10.876c0-2.196,0.858-4.11,2.544-5.676c1.671-1.558,3.816-2.337,6.374-2.337    c2.092,0,3.906,0.616,5.373,1.84c1.407,1.18,2.611,2.923,3.582,5.156c1.084,2.448,2.258,4.511,3.5,6.121    c1.204,1.573,2.928,2.886,5.125,3.917c2.213,1.024,5.2,1.558,8.865,1.558c5.05,0,9.189-1.068,12.297-3.16    c3.048-2.04,4.523-4.503,4.523-7.515c0-2.367-0.775-4.236-2.356-5.705c-1.671-1.528-3.861-2.715-6.517-3.546    c-2.777-0.846-6.54-1.773-11.198-2.738c-6.344-1.335-11.725-2.916-16-4.718c-4.38-1.832-7.91-4.377-10.491-7.56    c-2.619-3.242-3.951-7.3-3.951-12.071c0-4.54,1.392-8.643,4.147-12.175c2.724-3.509,6.713-6.254,11.853-8.116    c5.065-1.847,11.086-2.782,17.912-2.782c5.449,0,10.243,0.623,14.246,1.855c4.026,1.232,7.413,2.893,10.077,4.948    c2.687,2.077,4.689,4.281,5.938,6.581c1.264,2.322,1.912,4.629,1.912,6.863c0,2.152-0.843,4.11-2.506,5.809    c-1.671,1.721-3.786,2.589-6.269,2.589c-2.258,0-4.034-0.549-5.253-1.617c-1.144-1.002-2.333-2.56-3.65-4.785    c-1.52-2.849-3.364-5.097-5.479-6.685c-2.055-1.543-5.479-2.315-10.198-2.315c-4.365,0-7.932,0.861-10.574,2.574    c-2.544,1.64-3.785,3.531-3.785,5.772c0,1.365,0.399,2.515,1.227,3.494c0.858,1.053,2.085,1.959,3.635,2.73    c1.603,0.794,3.259,1.432,4.914,1.877c1.693,0.467,4.538,1.157,8.444,2.048c4.944,1.039,9.483,2.218,13.494,3.487    c4.071,1.276,7.579,2.849,10.453,4.696c2.92,1.877,5.23,4.281,6.879,7.159c1.648,2.901,2.484,6.462,2.484,10.609    C100.267,84.962,98.822,89.481,95.992,93.435z M124.32,77.588c0.926-4.169,1.407-8.487,1.407-12.924    c0-33.237-27.326-60.19-61.05-60.19c-3.552,0-7.037,0.304-10.438,0.883C48.783,1.966,42.325,0,35.409,0    C15.849,0,0,15.624,0,34.914c0,6.44,1.776,12.464,4.862,17.657c-0.805,3.902-1.234,7.953-1.234,12.093    c0,33.252,27.334,60.198,61.05,60.198c3.823,0,7.556-0.349,11.183-1.009C80.85,126.494,86.54,128,92.598,128    C112.151,128,128,112.368,128,93.094C128,87.522,126.675,82.262,124.32,77.588z" fill="#00AEF3" fill-rule="evenodd" id="Skype"/></g></g></symbol><symbol id="icon-telegram" viewBox="0 0 512 512">
<circle style="fill:#59AAE7;" cx="256" cy="256" r="256"/>
<path style="fill:#3D9AE3;" d="M256,0c-11.317,0-22.461,0.744-33.391,2.167C348.216,18.53,445.217,125.933,445.217,256
	s-97.002,237.47-222.609,253.833C233.539,511.256,244.683,512,256,512c141.385,0,256-114.616,256-256S397.385,0,256,0z"/>
<path style="fill:#FCFCFC;" d="M164.689,311.141L82.127,269.86c-2.263-1.132-2.285-4.353-0.038-5.516L395.75,102.105
	c2.304-1.192,4.964,0.811,4.456,3.355l-54.004,270.017c-0.385,1.927-2.446,3.011-4.253,2.237l-73.393-31.453
	c-0.879-0.377-1.884-0.326-2.721,0.139l-94.839,52.688c-2.062,1.145-4.597-0.345-4.597-2.705v-82.474
	C166.4,312.736,165.738,311.665,164.689,311.141z"/>
<path style="fill:#D8D7DA;" d="M200.31,338.967l-0.513-82.428c-0.003-0.528,0.27-1.018,0.72-1.293l133.899-81.798
	c1.518-0.927,3.106,1.083,1.852,2.345l-101.9,102.624c-0.112,0.114-0.207,0.244-0.278,0.387l-17.43,34.858l-13.509,25.988
	C202.426,341.045,200.32,340.538,200.31,338.967z"/>
<g>
</g>
<g>
</g>
<g>
</g>
<g>
</g>
<g>
</g>
<g>
</g>
<g>
</g>
<g>
</g>
<g>
</g>
<g>
</g>
<g>
</g>
<g>
</g>
<g>
</g>
<g>
</g>
<g>
</g>
</symbol><symbol id="icon-travels" viewBox="0 0 512.000000 512.000000" preserveAspectRatio="xMidYMid meet">
<metadata>
Created by potrace 1.16, written by Peter Selinger 2001-2019
</metadata>
<g transform="translate(0.000000,512.000000) scale(0.100000,-0.100000)" stroke="none">
<path d="M2975 5092 c-148 -50 -264 -150 -330 -285 -85 -173 -84 -355 2 -527
172 -342 645 -417 919 -145 231 230 231 593 -1 821 -118 116 -237 164 -410
164 -83 0 -114 -5 -180 -28z"/>
<path d="M3004 3936 c-121 -24 -186 -66 -329 -210 -283 -285 -539 -629 -725
-974 -154 -285 -179 -384 -125 -487 l26 -48 -65 -116 c-36 -64 -96 -171 -133
-238 l-69 -122 -159 91 c-231 131 -257 142 -299 128 -18 -6 -40 -18 -48 -28
-33 -38 -750 -1318 -754 -1347 -9 -56 22 -86 185 -176 116 -65 150 -87 144
-99 -16 -34 -15 -148 2 -184 66 -139 263 -171 367 -60 59 63 75 170 39 251
l-19 41 150 264 c82 144 231 407 330 583 99 176 261 460 359 631 l179 310 54
23 c67 28 92 59 154 193 80 176 240 447 340 576 17 22 19 10 54 -396 39 -444
46 -483 102 -557 14 -18 26 -38 26 -44 0 -11 -392 -729 -655 -1201 -202 -362
-205 -369 -205 -458 0 -60 5 -84 27 -129 33 -66 103 -127 166 -144 60 -16 173
-7 223 19 87 44 102 70 496 827 271 520 381 724 389 725 6 0 136 -228 242
-425 102 -189 233 -457 367 -748 67 -147 135 -285 151 -306 17 -25 50 -50 90
-70 195 -97 419 34 419 246 0 75 -15 115 -138 383 -186 405 -429 876 -614
1190 -78 132 -80 135 -63 160 73 113 77 181 35 644 -17 192 -29 350 -28 352 2
2 35 -19 73 -45 198 -138 496 -239 762 -258 103 -7 155 10 211 71 77 83 79
209 5 295 -46 54 -77 69 -179 87 -266 47 -512 181 -847 466 -55 45 -138 116
-185 156 -171 144 -341 195 -528 158z m-2083 -3698 c10 -26 10 -35 -2 -57 -45
-79 -164 -26 -129 58 24 58 107 58 131 -1z"/>
</g>
</symbol>
</svg>
