<?xml version="1.0" standalone="no"?>
<!DOCTYPE svg PUBLIC "-//W3C//DTD SVG 20010904//EN"
 "http://www.w3.org/TR/2001/REC-SVG-20010904/DTD/svg10.dtd">
<svg version="1.0" xmlns="http://www.w3.org/2000/svg"
 width="512.000000pt" height="512.000000pt" viewBox="0 0 512.000000 512.000000"
 preserveAspectRatio="xMidYMid meet">
<metadata>
Created by potrace 1.16, written by Peter Selinger 2001-2019
</metadata>
<g transform="translate(0.000000,512.000000) scale(0.100000,-0.100000)"
fill="#000000" stroke="none">
<path d="M2876 5105 c-185 -51 -339 -200 -397 -385 -24 -78 -29 -218 -10 -300
61 -260 291 -440 561 -440 159 0 286 53 400 169 87 88 123 148 150 257 79 308
-101 620 -406 699 -71 18 -230 18 -298 0z"/>
<path d="M2830 3833 c-85 -16 -404 -101 -504 -135 -360 -119 -690 -324 -972
-603 -217 -215 -260 -303 -218 -444 29 -99 140 -181 244 -181 20 0 61 7 91 16
49 15 66 29 194 161 216 224 361 332 609 454 77 38 141 67 142 66 2 -1 -46
-198 -107 -437 -125 -498 -133 -554 -99 -659 l22 -70 -85 -104 c-313 -380
-763 -605 -1247 -624 -162 -6 -214 -20 -270 -75 -138 -133 -97 -368 79 -446
28 -13 65 -16 166 -15 232 3 423 36 658 114 421 140 779 391 1054 738 l19 23
65 -52 c215 -176 417 -416 551 -655 108 -192 174 -361 234 -599 19 -76 43
-155 54 -175 42 -83 127 -131 230 -131 136 0 234 82 259 216 11 58 -8 166 -59
347 -149 520 -462 1013 -857 1349 -47 40 -97 82 -110 93 l-23 20 116 460 c64
253 117 461 118 462 1 1 64 -29 139 -67 293 -148 626 -216 937 -191 133 11
170 23 228 76 60 53 85 113 84 194 -2 112 -53 194 -147 237 -47 22 -62 24
-231 23 -100 0 -210 5 -245 11 -212 36 -393 111 -554 230 -53 39 -276 242
-325 295 -51 56 -165 93 -240 78z"/>
</g>
</svg>
