<?xml version="1.0" standalone="no"?>
<!DOCTYPE svg PUBLIC "-//W3C//DTD SVG 20010904//EN"
 "http://www.w3.org/TR/2001/REC-SVG-20010904/DTD/svg10.dtd">
<svg version="1.0" xmlns="http://www.w3.org/2000/svg"
 width="512.000000pt" height="512.000000pt" viewBox="0 0 512.000000 512.000000"
 preserveAspectRatio="xMidYMid meet">
<metadata>
Created by potrace 1.16, written by Peter Selinger 2001-2019
</metadata>
<g transform="translate(0.000000,512.000000) scale(0.100000,-0.100000)"
fill="#000000" stroke="none">
<path d="M105 5046 c-36 -15 -92 -77 -100 -109 -3 -12 -4 -650 -3 -1418 l3
-1396 27 -35 c15 -19 44 -44 65 -54 37 -18 105 -19 2463 -19 2358 0 2426 1
2463 19 21 10 50 35 65 54 l27 35 3 1396 c1 768 0 1406 -3 1418 -8 33 -65 94
-102 109 -47 20 -4863 20 -4908 0z m2098 -627 c52 -14 983 -635 1025 -684 103
-117 99 -297 -9 -404 -19 -18 -248 -176 -510 -351 -510 -340 -526 -349 -626
-335 -108 16 -201 85 -247 184 -21 46 -21 53 -21 706 0 618 1 663 18 705 46
112 156 189 272 190 33 0 77 -5 98 -11z"/>
<path d="M2069 4173 c-12 -13 -14 -125 -14 -634 0 -563 1 -620 17 -635 9 -9
28 -16 43 -16 18 0 172 97 486 306 l460 307 -3 37 c-3 37 -3 37 -463 345 -313
209 -468 307 -486 307 -15 0 -33 -7 -40 -17z"/>
<path d="M105 1771 c-46 -21 -79 -54 -94 -94 -7 -19 -11 -197 -11 -524 l0
-496 25 -43 c16 -28 39 -49 68 -63 41 -20 59 -21 359 -21 l317 0 3 273 c3 269
3 273 29 327 31 66 82 118 146 151 47 24 54 24 332 27 l283 3 -4 172 c-4 193
-10 213 -81 271 l-39 31 -646 2 c-613 3 -649 2 -687 -16z"/>
<path d="M1882 1769 c-26 -13 -55 -39 -70 -62 -26 -39 -27 -45 -30 -218 l-3
-178 283 -3 283 -3 54 -30 c62 -34 113 -90 138 -151 10 -24 20 -44 23 -44 3 0
13 20 23 44 25 61 76 117 138 151 l54 30 283 3 283 3 -3 178 c-3 173 -4 178
-30 218 -16 24 -44 49 -70 62 -44 21 -53 21 -679 21 -628 0 -634 0 -677 -21z"/>
<path d="M3692 1782 c-34 -10 -90 -59 -109 -95 -14 -25 -18 -67 -21 -204 l-4
-172 283 -3 c278 -3 285 -3 332 -27 64 -33 115 -85 146 -151 26 -54 26 -58 29
-327 l3 -273 317 0 c300 0 318 1 359 21 29 14 52 35 68 63 l25 43 0 496 c0
327 -4 505 -11 524 -15 40 -48 73 -94 94 -38 17 -78 19 -670 18 -346 -1 -640
-4 -653 -7z"/>
<path d="M1034 1056 c-18 -14 -19 -31 -19 -489 0 -387 3 -477 14 -490 12 -16
69 -17 637 -17 553 0 624 2 638 16 14 14 16 72 16 489 l0 474 -22 15 c-20 14
-97 16 -633 16 -512 0 -614 -2 -631 -14z"/>
<path d="M2822 1054 l-22 -15 0 -474 c0 -417 2 -475 16 -489 14 -14 85 -16
638 -16 568 0 625 1 637 17 11 13 14 103 14 490 0 458 -1 475 -19 489 -17 12
-119 14 -631 14 -536 0 -613 -2 -633 -16z"/>
</g>
</svg>
